#!OML:ASF H:\Dans Jumps\Project 1\Capture day 1\Session 1\subject.ASF
:FULLY-SPECIFIED
:DEGREES
227
root 0.0271346 15.1734 -12.8522 27.6262 2.05066 -2.40944
lowerback 19.375 1.32411 -3.33962
upperback -2.2951 1.41178 3.35378
thorax -13.7406 1.08758 5.2782
lowerneck -26.8236 -0.41572 -1.93455
upperneck 8.41379 -0.116529 1.47979
head 6.80845 0.022247 0.783489
rclavicle 8.54774e-015 -1.55052e-014
rhumerus -15.6501 -17.5192 -74.5183
rradius 26.1116
rwrist 39.5663
rhand -18.9782 -26.1675
rfingers 7.12502
rthumb 7.32621 -56.0207
lclavicle 8.54774e-015 -1.55052e-014
lhumerus -16.0767 33.5078 74.6815
lradius 10.9751
lwrist -23.048
lhand -22.3936 -5.16763
lfingers 7.12502
lthumb 4.02871 24.774
rfemur -55.9508 -3.17421 24.4587
rtibia 69.3881
rfoot -36.0245 -21.5262
rtoes -8.73494
lfemur -57.0455 7.22899 -17.3692
ltibia 69.4629
lfoot -30.8249 22.6938
ltoes -20.6255
228
root 0.0255558 15.2908 -12.6432 27.0436 2.01174 -2.31571
lowerback 18.97 1.26879 -3.4895
upperback -2.492 1.30958 3.32362
thorax -13.723 1.05502 5.36228
lowerneck -26.7413 -0.434097 -2.03441
upperneck 9.0119 -0.135271 1.62105
head 6.99695 0.0220144 0.845738
rclavicle -1.39149e-015 0
rhumerus -16.0903 -15.4713 -74.2422
rradius 27.5814
rwrist 37.9623
rhand -19.089 -26.0954
rfingers 7.12502
rthumb 7.21921 -55.9522
lclavicle -1.39149e-015 0
lhumerus -16.2139 28.9698 74.9829
lradius 11.7817
lwrist -18.5783
lhand -22.6034 -5.14883
lfingers 7.12502
lthumb 3.82607 24.7966
rfemur -53.4271 -3.54932 24.3516
rtibia 67.4914
rfoot -35.932 -21.2007
rtoes -9.26746
lfemur -54.5198 7.65932 -17.4658
ltibia 67.5708
lfoot -30.6696 22.3949
ltoes -21.3489
229
root 0.0256556 15.4203 -12.4224 26.4596 1.97369 -2.19556
lowerback 18.4484 1.19033 -3.62155
upperback -2.70365 1.18245 3.27888
thorax -13.6477 1.00737 5.42487
lowerneck -26.5487 -0.443807 -2.1498
upperneck 9.63056 -0.138538 1.74845
head 7.17601 0.0266803 0.908033
rclavicle 5.56597e-015 -2.14687e-014
rhumerus -16.6583 -13.4009 -73.929
rradius 29.0832
rwrist 36.4625
rhand -19.2508 -26.0435
rfingers 7.12502
rthumb 7.06307 -55.9056
lclavicle 5.56597e-015 -2.14687e-014
lhumerus -16.6175 25.081 74.9656
lradius 12.5228
lwrist -15.1032
lhand -22.6183 -4.95324
lfingers 7.12502
lthumb 3.81171 24.9924
rfemur -50.7437 -3.92229 24.1821
rtibia 65.3471
rfoot -35.7032 -20.8359
rtoes -9.79167
lfemur -51.8344 8.07105 -17.5657
ltibia 65.4253
lfoot -30.3626 22.0412
ltoes -22.1277
230
root 0.027577 15.5608 -12.19 25.8843 1.93385 -2.04771
lowerback 17.7898 1.08726 -3.73478
upperback -2.92362 1.02867 3.21461
thorax -13.4943 0.942372 5.45899
lowerneck -26.2214 -0.436741 -2.26853
upperneck 10.2324 -0.120571 1.86547
head 7.32861 0.0395764 0.970158
rclavicle -1.09332e-014 -1.66979e-014
rhumerus -17.2925 -11.3856 -73.5964
rradius 30.5047
rwrist 35.2897
rhand -19.3884 -26.0399
rfingers 7.12502
rthumb 6.93026 -55.9065
lclavicle -1.09332e-014 -1.66979e-014
lhumerus -17.212 21.7591 74.6986
lradius 13.1755
lwrist -12.5483
lhand -22.4397 -4.66147
lfingers 7.12502
lthumb 3.98421 25.281
rfemur -47.9195 -4.29045 23.9481
rtibia 62.9585
rfoot -35.3109 -20.4168
rtoes -10.3538
lfemur -49.0146 8.46022 -17.6703
ltibia 63.0388
lfoot -29.8773 21.6125
ltoes -22.9745
231
root 0.031147 15.7117 -11.9464 25.3275 1.89088 -1.86957
lowerback 16.9686 0.957905 -3.83426
upperback -3.14043 0.845313 3.12712
thorax -13.233 0.85734 5.46247
lowerneck -25.7561 -0.405188 -2.36936
upperneck 10.7978 -0.0771798 1.96555
head 7.44678 0.0628241 1.02689
rclavicle 8.94531e-015 8.74653e-015
rhumerus -17.9389 -9.50037 -73.2593
rradius 31.7473
rwrist 34.5552
rhand -19.4448 -26.0574
rfingers 7.12502
rthumb 6.87581 -55.9257
lclavicle 8.94531e-015 8.74653e-015
lhumerus -17.9507 18.8696 74.2465
lradius 13.7595
lwrist -10.6996
lhand -22.1148 -4.27625
lfingers 7.12502
lthumb 4.29792 25.6601
rfemur -45.0475 -4.6576 23.6519
rtibia 60.5303
rfoot -34.8307 -19.9808
rtoes -11.0758
lfemur -46.1571 8.83056 -17.7826
ltibia 60.6322
lfoot -29.3246 21.1138
ltoes -23.8756
232
root 0.0361869 15.8726 -11.6915 24.7899 1.84403 -1.66842
lowerback 15.9693 0.804287 -3.91678
upperback -3.34275 0.636815 3.0167
thorax -12.8422 0.752794 5.43068
lowerneck -25.1457 -0.346906 -2.43332
upperneck 11.3181 -0.00986426 2.03908
head 7.52554 0.0955635 1.07148
rclavicle -1.64991e-014 -9.54166e-015
rhumerus -18.5819 -7.7905 -72.9288
rradius 32.7694
rwrist 34.2136
rhand -19.3823 -26.0854
rfingers 7.12502
rthumb 6.93609 -55.9518
lclavicle -1.64991e-014 -9.54166e-015
lhumerus -18.8017 16.2783 73.6705
lradius 14.2945
lwrist -9.28201
lhand -21.7334 -3.90063
lfingers 7.12502
lthumb 4.66618 26.028
rfemur -42.0819 -5.02526 23.3018
rtibia 57.8894
rfoot -34.0965 -19.4646
rtoes -11.9913
lfemur -43.227 9.19054 -17.8922
ltibia 58.0437
lfoot -28.5262 20.4614
ltoes -24.8822
233
root 0.0441254 15.9562 -11.4458 24.264 1.78622 -1.45625
lowerback 14.788 0.635903 -3.97857
upperback -3.51905 0.417575 2.8842
thorax -12.3087 0.634389 5.35709
lowerneck -24.4131 -0.267064 -2.4485
upperneck 11.8191 0.0732659 2.07694
head 7.57664 0.133725 1.0978
rclavicle -3.18055e-015 -3.4191e-014
rhumerus -19.2384 -6.30487 -72.6099
rradius 33.5818
rwrist 34.1264
rhand -19.2125 -26.0933
rfingers 7.12502
rthumb 7.10007 -55.9542
lclavicle -3.18055e-015 -3.4191e-014
lhumerus -19.7469 13.8696 73.0323
lradius 14.8161
lwrist -8.00988
lhand -21.3666 -3.60485
lfingers 7.12502
lthumb 5.0204 26.3157
rfemur -39.3639 -5.40193 22.9009
rtibia 55.3975
rfoot -33.0764 -18.8077
rtoes -13.1054
lfemur -40.5733 9.55201 -17.9734
ltibia 55.6456
lfoot -27.4781 19.5665
ltoes -25.9446
234
root 0.0510909 16.1447 -11.1686 23.737 1.7162 -1.24121
lowerback 13.4346 0.46308 -4.01284
upperback -3.6576 0.202969 2.72914
thorax -11.6288 0.508716 5.23293
lowerneck -23.5734 -0.184311 -2.42461
upperneck 12.3236 0.149972 2.08884
head 7.61012 0.167519 1.10774
rclavicle 1.74931e-014 -2.5842e-014
rhumerus -19.9501 -5.0871 -72.31
rradius 34.2432
rwrist 34.1205
rhand -18.9887 -26.0417
rfingers 7.12502
rthumb 7.3161 -55.8952
lclavicle 1.74931e-014 -2.5842e-014
lhumerus -20.7499 11.5613 72.3884
lradius 15.3383
lwrist -6.64356
lhand -21.0454 -3.37279
lfingers 7.12502
lthumb 5.33055 26.5402
rfemur -36.1895 -5.78327 22.4679
rtibia 52.3668
rfoot -31.7251 -17.9572
rtoes -14.3872
lfemur -37.4825 9.90415 -18.0187
ltibia 52.7619
lfoot -26.1642 18.3885
ltoes -27.0725
235
root 0.0589078 16.3432 -10.8805 23.1849 1.63143 -1.03412
lowerback 11.9365 0.301409 -4.01097
upperback -3.74767 0.0147659 2.55166
thorax -10.8127 0.386476 5.04979
lowerneck -22.6482 -0.120887 -2.38119
upperneck 12.8615 0.194627 2.09187
head 7.6395 0.185763 1.10709
rclavicle 2.88238e-015 -1.63003e-014
rhumerus -20.7721 -4.15184 -72.0316
rradius 34.8339
rwrist 34.0268
rhand -18.7779 -25.9397
rfingers 7.12502
rthumb 7.51949 -55.786
lclavicle 2.88238e-015 -1.63003e-014
lhumerus -21.7878 9.29918 71.7868
lradius 15.8826
lwrist -5.03281
lhand -20.7828 -3.20342
lfingers 7.12502
lthumb 5.58406 26.703
rfemur -32.9358 -6.18221 21.9982
rtibia 49.2215
rfoot -30.0164 -16.8201
rtoes -15.8068
lfemur -34.3416 10.241 -17.9974
ltibia 49.8177
lfoot -24.5647 16.8468
ltoes -28.2121
236
root 0.0674451 16.5531 -10.5823 22.5933 1.53903 -0.842299
lowerback 10.3201 0.16068 -3.96292
upperback -3.78066 -0.133651 2.35273
thorax -9.87151 0.275176 4.80345
lowerneck -21.6577 -0.0925463 -2.34908
upperneck 13.455 0.190462 2.11584
head 7.67547 0.182068 1.10906
rclavicle 2.48481e-015 -1.98785e-015
rhumerus -21.7382 -3.45881 -71.7884
rradius 35.4329
rwrist 33.7075
rhand -18.6293 -25.804
rfingers 7.12502
rthumb 7.66299 -55.6451
lclavicle 2.48481e-015 -1.98785e-015
lhumerus -22.8228 7.07683 71.2538
lradius 16.4369
lwrist -3.14542
lhand -20.5831 -3.08565
lfingers 7.12502
lthumb 5.77688 26.8156
rfemur -29.4921 -6.60512 21.4934
rtibia 45.7117
rfoot -27.7297 -15.3086
rtoes -17.3544
lfemur -31.0466 10.5357 -17.8906
ltibia 46.5627
lfoot -22.4936 14.8041
ltoes -29.2925
237
root 0.076511 16.7763 -10.2749 21.9577 1.44763 -0.671142
lowerback 8.6065 0.0457974 -3.86586
upperback -3.74883 -0.237098 2.13723
thorax -8.81392 0.179495 4.50108
lowerneck -20.6267 -0.104112 -2.3519
upperneck 14.115 0.133768 2.18062
head 7.72543 0.155416 1.12415
rclavicle 2.18663e-015 4.96962e-015
rhumerus -22.8439 -2.92286 -71.5952
rradius 36.0758
rwrist 33.1238
rhand -18.5639 -25.665
rfingers 7.12502
rthumb 7.72608 -55.5039
lclavicle 2.18663e-015 4.96962e-015
lhumerus -23.8291 4.9113 70.8007
lradius 16.9957
lwrist -1.03322
lhand -20.4567 -2.99667
lfingers 7.12502
lthumb 5.89891 26.9012
rfemur -25.9943 -7.04651 20.9546
rtibia 42.1442
rfoot -24.968 -13.4291
rtoes -18.9879
lfemur -27.7345 10.7542 -17.6883
ltibia 43.2973
lfoot -20.045 12.2892
ltoes -30.2144
238
root 0.0857734 17.0144 -9.95982 21.2778 1.36712 -0.51791
lowerback 6.83547 -0.0424126 -3.72711
upperback -3.65716 -0.298493 1.90938
thorax -7.67202 0.101712 4.15708
lowerneck -19.5475 -0.150743 -2.39669
upperneck 14.83 0.0312318 2.28605
head 7.78395 0.108326 1.15456
rclavicle -4.47266e-016 -6.16232e-015
rhumerus -24.0662 -2.44258 -71.4715
rradius 36.7489
rwrist 32.3604
rhand -18.5824 -25.5485
rfingers 7.12502
rthumb 7.70824 -55.388
lclavicle -4.47266e-016 -6.16232e-015
lhumerus -24.7919 2.82178 70.4249
lradius 17.5242
lwrist 1.19598
lhand -20.4343 -2.95802
lfingers 7.12502
lthumb 5.92056 26.9393
rfemur -22.4837 -7.47249 20.372
rtibia 38.5647
rfoot -21.6901 -11.1549
rtoes -20.3913
lfemur -24.4478 10.8505 -17.3953
ltibia 40.0489
lfoot -17.0961 9.33195
ltoes -30.8384
